/* XPM */
static char *_3a1a920c9bf45abd02f68f3aa75fa57nFKuDUrKsbumOH3Q[] = {
/* columns rows colors chars-per-pixel */
"64 64 10 1 ",
"  c #FCFDE9",
". c #FAFAEE",
"X c #FCFCEF",
"o c #FAFCF1",
"O c #FCFCF0",
"+ c #FDFFF3",
"@ c #FBFCF4",
"# c #FDFEF7",
"$ c #FCFDF9",
"% c white",
/* pixels */
"%%%%%%%%%%%%%%%%%%%%%%%%%%%%%%%%%%%%%%%%%%%%%%%%%%%%%%%%%%%%%%%%",
"%%%%%%%%%%%%%%%%%%%%%%%%%%%%%%%%%%%%%%%%%%%%%%%%%%%%%%%%%%%%%%%%",
"%%%%%%%%%%%%%%%%%%%%%%%%%%%%%%%%%%%%%%%%%%%%%%%%%%%%%%%%%%%%%%%%",
"%%%%%%%%%%%%%%%%%%%%%%%%%%%%%%%%%%%%%%%%%%%%%%%%%%%%%%%%%%%%%%%%",
"%%%%%%%%%%%%%%%%%%%%%%%%%%%%%%%%%%%%%%%%%%%%%%%%%%%%%%%%%%%%%%%%",
"%%%%%%%%%%%%%%%%%%%%%%%%%%%%%%%%%%%%%%%%%%%%%%%%%%%%%%%%%%%%%%%%",
"%%%%%%%%%%%%%%%%%%%%%%%%%%%%%%%%%%%%%%%%%%%%%%%%%%%%%%%%%%%%%%%%",
"%%%%%%%%%%%%%%%%%%%%%%%%%%%%%%%%%%%%%%%%%%%%%%%%%%%%%%%%%%%%%%%%",
"%%%%%%%%%%%%%%%%%%%%%%%%%%%%%%%%%%%%%%%%%%%%%%%%%%%%%%%%%%%%%%%%",
"%%%%%%%%%%%%%%%%%%%%%$%%%%$#####%%%%%%%%%%%%%%%%$%%%%%%%%%%%%%%%",
"%%%%%%%%%%%%%%%%%%%%%$%%$$$#####$$$$$$$$$$$$$$$$$$%%%%%%%%%%%%%%",
"%%%%%%%%%%%%%%%%%%%%%$$%$#######$$$$$$$$$$$$$$$$$$%%%%%%%%%%%%%%",
"%%%%%%%%%%%%%%%%%%%%$##$###################$$##$##%%%%%%%%%%%%%%",
"%%%%%%%%%%%%%%%%%%$$######+################$$#$$##%%%%%%%%%%%%%%",
"%%%%%%%%%%%%%%%$$###############$$$$#####$$$$$$$$$%%%%%%%%%%%%%%",
"%%%%%%%%%%%%%%%$$###############$$$$#####$$$$$$$$$%%%%%%%%%%%%%%",
"%%%%%%%%%%%%%%%$$###############$$$$#####$$$$$$$$$%%%%%%%%%%%%%%",
"%%%%%%%%%%%%%%%$################$$$$#####$$$$$$$$$%%%%%%%%%%%%%%",
"%%%%%%%%%%%$###########$$$$#########$$$$$$$$$$$$$$#$$%%%%%%%%%%%",
"%%%%%%%%%%$$###########$$$$#########$$$$$$$$$$$$$$#$$%%%%%%%%%%%",
"%%%%%%%$#$$#++#########$$$$#########$$$$$$$$$$$$$$#$$%%%%%%%%%%%",
"%%%%%%%#+$##++#########$$$$#########$$$$$$$$$$$$$$#$$%%%%%%%%%%%",
"%%%%%%$#++#+++############$#########$$$$$$$$$$$$$$##$$%%%%%%%%%%",
"%%%%%%%%%X++X+++++++####++###+++######################%%%%%%%%%%",
"%%%%%%%%%+++++#+####+##++#++++++++++##################%%%%%%%%%%",
"%%%%%%%%%#####+####++#+#####++++++++##################$%%%%%%%%%",
"%%%%%%%%%#########++++########++++####################$%%%%%%%%%",
"%%%%%%%%%$$#########++++######+++###+++++++#######$#+X$%%%%%%%%%",
"%%%%%%%%%$$#+#######++++###+########+++++++#######$##+$%%%%%%%%%",
"%%%%%%%%%$$#+#######++++###+########+++X+++#########+#%%%%%%%%%%",
"%%%%%%%%%$$#+#######+++###++++#++++++++++++#######+++#%%%%%%%%%%",
"%%%%%%%%%$$#++#######++###+++++++++++++++X++######X+#$%%%%%%%%%%",
"%%%%%$$$$$##++#########++++++++++###+++++X+++++++++#$%%%%%%%%%%%",
"%%%%%$$$$++#$###########++++++++####+++++++++XX+++o@$%%%%%%%%%%%",
"%%%%%$$$$X++##############++++##+###++++++++++++++o@$%%%%%%%%%%%",
"%%%%%$$$$##+++#############+#++#+###++++++++++++++o#$%%%%%%%%%%%",
"%%%%%%%%%%$+ X#$$%%$$$####$#####++####+++#++++##+++++#$%%%%%%%%%",
"%%%%%%%%%%$+ X#$$%%$$$####$#####++####+++##++###+++++#$%%%%%%%%%",
"%%%%%%%%%%$#X.#$$%$$$####$$#####+++###++++++##++#+##+##$%%%%%%%%",
"%%%%%%%%%%$####$$%$$$####$$#####++++##++#++###++########$%%%%%%%",
"%%%%%%%%%$$$$$##$%%$$####$$#####++++######+++###+#####+#$%%%%%%%",
"%%%%%%%%%%%%%%%$$#$$$$$$$$$$$$$$#######################$%%%%%%%%",
"%%%%%%%%%%%%%%%$$#$$$$$$$$$$$$$$##############$$####$##$%%%%%%%%",
"%%%%%%%%%%%%%%%$$#$$$$$$$$$$$$$$#############$$$$$$$$$$$%%%%%%%%",
"%%%%%%%%%%%%%%%$$#$$$$$$$$$$$$$$#############$$%%%%%%%$$%%%%%%%%",
"%%%%%%%%%%%%%%%%%%%$$##$$$$#####$$$$$$$$$$$$$$%%%%%%%%%%%%%%%%%%",
"%%%%%%%%%%%%%%%%%%%$$##$$$$#####$$$$$$$$$$$$$%%%%%%%%%%%%%%%%%%%",
"%%%%%%%%%%%%%%%%%%%$$##$$$$#########$$$$$$$$$%%%%%%%%%%%%%%%%%%%",
"%%%%%%%%%%%%%%%%%%%%$$#$$$$#######++$$$$$$$$$%%%%%%%%%%%%%%%%%%%",
"%%%%%%%%%%%%%%%%%%%%$$#$$$$#######++$$$$$$$$$%%%%%%%%%%%%%%%%%%%",
"%%%%%%%%%%%%%%%%%%%%%%%$$$$###++XX++#####$$$$%%%%%%%%%%%%%%%%%%%",
"%%%%%%%%%%%%%%%%%%%%%%%$$$$#####X+##$$$$$$$$$%%%%%%%%%%%%%%%%%%%",
"%%%%%%%%%%%%%%%%%%%%%%%%%%%$$$$$##$$$$$$$%%%%%%%%%%%%%%%%%%%%%%%",
"%%%%%%%%%%%%%%%%%%%%%%%%%%%%%%%%$$%%%%%%%%%%%%%%%%%%%%%%%%%%%%%%",
"%%%%%%%%%%%%%%%%%%%%%%%%%%%%%%%%%%%%%%%%%%%%%%%%%%%%%%%%%%%%%%%%",
"%%%%%%%%%%%%%%%%%%%%%%%%%%%%%%%%%%%%%%%%%%%%%%%%%%%%%%%%%%%%%%%%",
"%%%%%%%%%%%%%%%%%%%%%%%%%%%%%%%%%%%%%%%%%%%%%%%%%%%%%%%%%%%%%%%%",
"%%%%%%%%%%%%%%%%%%%%%%%%%%%%%%%%%%%%%%%%%%%%%%%%%%%%%%%%%%%%%%%%",
"%%%%%%%%%%%%%%%%%%%%%%%%%%%%%%%%%%%%%%%%%%%%%%%%%%%%%%%%%%%%%%%%",
"%%%%%%%%%%%%%%%%%%%%%%%%%%%%%%%%%%%%%%%%%%%%%%%%%%%%%%%%%%%%%%%%",
"%%%%%%%%%%%%%%%%%%%%%%%%%%%%%%%%%%%%%%%%%%%%%%%%%%%%%%%%%%%%%%%%",
"%%%%%%%%%%%%%%%%%%%%%%%%%%%%%%%%%%%%%%%%%%%%%%%%%%%%%%%%%%%%%%%%",
"%%%%%%%%%%%%%%%%%%%%%%%%%%%%%%%%%%%%%%%%%%%%%%%%%%%%%%%%%%%%%%%%",
"%%%%%%%%%%%%%%%%%%%%%%%%%%%%%%%%%%%%%%%%%%%%%%%%%%%%%%%%%%%%%%%%"
};
