/* XPM */
static char *b622cec004c740468a3fd73c68dc140ap8C5bnCXzb9t1QYt[] = {
/* columns rows colors chars-per-pixel */
"64 64 154 2 ",
"   c #E70304",
".  c #EC0504",
"X  c #EB040C",
"o  c #F50403",
"O  c #FE0000",
"+  c #F00806",
"@  c #F40409",
"#  c #F60E0D",
"$  c #E81D15",
"%  c #E71D1B",
"&  c #E91D1D",
"*  c #EB201D",
"=  c #EA2020",
"-  c #F3312E",
";  c #EA3635",
":  c #E63A37",
">  c #EB3836",
",  c #E73738",
"<  c #E6383A",
"1  c #EA3A38",
"2  c #F33431",
"3  c #F83532",
"4  c #F5413F",
"5  c #F8413E",
"6  c #EB4F4F",
"7  c #F34040",
"8  c #F54E4D",
"9  c #EB5251",
"0  c #DE7472",
"q  c #EC6B66",
"w  c #E46F6D",
"e  c #EC6C6A",
"r  c #E0726D",
"t  c #EE7474",
"y  c #F17272",
"u  c #E78E8B",
"i  c #EA8D8B",
"p  c #F5958B",
"a  c #E79A92",
"s  c #E99992",
"d  c #F59491",
"f  c #EFA09B",
"g  c #F2A19C",
"h  c #F1CAC6",
"j  c #F4CCC8",
"k  c #F6DBCD",
"l  c #F6DDD6",
"z  c #F9DDD6",
"x  c #F9DEDA",
"c  c #F6E6DD",
"v  c #FAE4DD",
"b  c #F6E8E0",
"n  c #F7E8E1",
"m  c #F9E8E1",
"M  c #F8E9E4",
"N  c #F9E8E2",
"B  c #FCF3EC",
"V  c #FBF4ED",
"C  c #FBF4EE",
"Z  c #FDF4EC",
"A  c #FCF5EF",
"S  c #FCFBEE",
"D  c #FDFEEF",
"F  c #FEFFEF",
"G  c #FBF4F0",
"H  c #FCF4F0",
"J  c #FCF6F1",
"K  c #FDF5F4",
"L  c #FDF6F5",
"P  c #FCFCF0",
"I  c #FEFDF1",
"U  c #FDFEF0",
"Y  c #FCFEF1",
"T  c #FEFFF0",
"R  c #FEFEF1",
"E  c #FEFFF1",
"W  c #FDFCF2",
"Q  c #FCFCF3",
"!  c #FDFCF3",
"~  c #FDFDF3",
"^  c #FEFDF2",
"/  c #FEFCF3",
"(  c #FCFEF2",
")  c #FDFEF3",
"_  c #FEFEF2",
"`  c #FEFEF3",
"'  c #FDFDF5",
"]  c #FEFCF4",
"[  c #FEFDF4",
"{  c #FEFDF5",
"}  c #FCFEF5",
"|  c #FDFEF5",
" . c #FEFEF4",
".. c #FEFEF5",
"X. c #FCFDF6",
"o. c #FDFDF6",
"O. c #FDFCF7",
"+. c #FEFDF6",
"@. c #FDFEF6",
"#. c #FDFEF7",
"$. c #FEFEF6",
"%. c #FFFEF6",
"&. c #FEFFF6",
"*. c #FFFFF6",
"=. c #FEFEF7",
"-. c #FFFEF7",
";. c #FEFFF7",
":. c #FFFFF7",
">. c #FEFDF6",
",. c #FCFDF9",
"<. c #FDFDF9",
"1. c #FEFDF8",
"2. c #FFFDF8",
"3. c #FEFDF9",
"4. c #FDFEF8",
"5. c #FDFEF9",
"6. c #FEFEF8",
"7. c #FFFEF8",
"8. c #FEFFF8",
"9. c #FFFFF8",
"0. c #FFFEF9",
"q. c #FEFFF9",
"w. c #FFFFF9",
"e. c #FDFDFA",
"r. c #FDFDFB",
"t. c #FFFDFA",
"y. c #FDFEFA",
"u. c #FDFEFB",
"i. c #FEFEFA",
"p. c #FFFEFA",
"a. c #FEFFFA",
"s. c #FFFFFA",
"d. c #FEFEFB",
"f. c #FFFEFB",
"g. c #FEFFFB",
"h. c #FFFFFB",
"j. c #FDFDFD",
"k. c #FDFEFC",
"l. c #FEFEFC",
"z. c #FFFEFC",
"x. c #FEFFFC",
"c. c #FFFFFC",
"v. c #FEFEFD",
"b. c #FFFEFD",
"n. c #FEFFFD",
"m. c #FFFFFD",
"M. c #FFFDFF",
"N. c #FEFEFE",
"B. c #FFFEFE",
"V. c #FEFFFE",
"C. c #FFFFFE",
"Z. c #FFFEFF",
"A. c white",
"S. c #FFFFFF",
/* pixels */
"A.A.A.A.A.A.A.A.A.A.A.A.A.A.A.A.A.A.A.A.A.A.A.A.A.A.A.A.A.A.A.A.A.A.A.A.A.A.A.A.A.A.A.A.A.A.A.A.A.A.A.A.A.A.A.A.A.A.A.A.A.A.A.A.",
"A.A.A.A.A.A.A.A.A.A.A.A.A.A.A.A.A.A.A.A.A.A.A.A.A.A.A.A.A.A.A.A.A.A.A.A.A.A.A.A.A.A.A.A.A.A.A.A.A.A.A.A.A.A.A.A.A.A.A.A.A.A.A.A.",
"A.A.A.A.A.A.A.A.A.A.A.A.A.A.A.A.A.A.A.A.A.A.A.A.A.A.A.A.A.A.A.A.A.A.A.A.A.A.A.A.A.A.A.A.A.A.A.A.A.A.A.A.A.A.A.A.A.A.A.A.A.A.A.A.",
"A.A.A.A.A.A.A.A.A.A.A.A.A.A.A.A.A.A.A.A.A.A.A.A.A.A.A.A.A.A.A.A.A.A.A.A.A.A.A.A.A.A.A.A.A.A.A.A.A.A.A.A.A.A.A.A.A.A.A.A.A.A.A.A.",
"A.A.A.A.A.A.A.A.A.A.A.A.A.A.A.A.A.A.A.A.A.A.A.A.A.A.A.A.A.A.A.A.A.A.A.A.A.A.A.A.A.A.A.A.A.A.A.A.A.A.A.A.A.A.A.A.A.A.A.A.A.A.A.A.",
"A.A.A.A.A.A.A.A.A.A.A.A.A.A.A.A.A.A.A.A.A.A.A.A.A.A.A.A.A.A.A.A.A.A.A.A.A.A.A.A.A.A.A.A.A.A.A.A.A.A.A.A.A.A.A.A.A.A.A.A.A.A.A.A.",
"A.A.A.A.A.A.A.A.A.A.A.A.A.A.A.A.A.A.A.A.A.A.A.A.A.A.A.A.A.A.A.A.A.A.A.A.A.A.A.A.A.A.A.A.A.A.A.A.A.A.A.A.A.A.A.A.A.A.A.A.A.A.A.A.",
"A.A.A.A.A.A.A.A.A.A.A.A.A.A.A.A.A.A.A.A.A.A.A.A.A.A.A.A.A.A.A.A.A.A.A.A.A.A.A.A.A.A.A.A.A.A.A.A.A.A.A.A.A.A.A.A.A.A.A.A.A.A.A.A.",
"A.A.A.A.A.A.A.A.A.A.A.A.A.A.A.A.A.A.A.A.A.A.A.A.A.A.A.A.A.A.A.A.A.A.A.A.A.A.A.A.A.A.A.A.A.A.A.A.A.A.A.A.A.A.A.A.A.A.A.A.A.A.A.A.",
"A.A.A.A.A.A.A.A.A.A.A.A.A.A.A.A.A.A.A.A.A.,.A.A.A.A.,.#.#.#.#.#.A.A.A.A.A.A.A.A.A.A.A.A.A.A.A.A.,.A.A.A.A.A.A.A.A.A.A.A.A.A.A.A.",
"A.A.A.A.A.A.A.A.A.A.A.A.A.A.A.A.A.A.A.A.A.,.A.A.,.,.,.#.#.#.#.#.,.,.,.,.,.,.,.,.,.,.,.,.,.,.,.,.,.,.A.A.A.A.A.A.A.A.A.A.A.A.A.A.",
"A.A.A.A.A.A.A.A.A.A.A.A.A.A.A.A.A.A.A.A.A.,.,.A.,.#.#.#.#.#.#.#.,.,.,.,.,.,.,.,.,.,.,.,.,.,.,.,.,.,.A.A.A.A.A.A.A.A.A.A.A.A.A.A.",
"A.A.A.A.A.A.A.A.A.A.A.A.A.A.A.A.A.A.A.A.,.#.#.,.#.! l d q 9 4 - 3 7 9 e d l #.#.#.#.#.,.,.#.#.,.#.#.A.A.A.A.A.A.A.A.A.A.A.A.A.A.",
"A.A.A.A.A.A.A.A.A.A.A.A.A.A.A.A.A.A.,.,.,.#.#.n g , . O O O O O O O O O o + > f n #.#.,.,.#.,.,.#.#.A.A.A.A.A.A.A.A.A.A.A.A.A.A.",
"A.A.A.A.A.A.A.A.A.A.A.A.A.A.A.,.,.#.#.#.#.Z i X O O O O O O O O O O O O O O O o X i K ,.,.,.,.,.,.,.A.A.A.A.A.A.A.A.A.A.A.A.A.A.",
"A.A.A.A.A.A.A.A.A.A.A.A.A.A.A.,.,.#.#.#.h = O O O O O O O O O O O O O O O O O o o o * h ,.,.,.,.,.,.A.A.A.A.A.A.A.A.A.A.A.A.A.A.",
"A.A.A.A.A.A.A.A.A.A.A.A.A.A.A.,.,.#.! w # O O o O O O O O O O O O O O O O O O O O O O # w #.,.,.,.,.A.A.A.A.A.A.A.A.A.A.A.A.A.A.",
"A.A.A.A.A.A.A.A.A.A.A.A.A.A.A.,.#.V t o O O O O O O O O O O O O O O O O O O O O O O O O @ t K ,.,.,.A.A.A.A.A.A.A.A.A.A.A.A.A.A.",
"A.A.A.A.A.A.A.A.A.A.A.,.#.#.#.#.#.t O O O O O O O O O O O O O O O O O O O O O O O O O O O O y #.,.,.#.,.,.A.A.A.A.A.A.A.A.A.A.A.",
"A.A.A.A.A.A.A.A.A.A.,.,.#.#.#.#.w o O O O O O O O O O O O O O O O O O O O O O O O O O O O O o r ,.,.#.,.,.A.A.A.A.A.A.A.A.A.A.A.",
"A.A.A.A.A.A.A.,.#.,.,.#.#.#.#.h # O O O O O O O O O O O O O O O O O O O O O O O O O O O O O O # h ,.#.,.,.A.A.A.A.A.A.A.A.A.A.A.",
"A.A.A.A.A.A.A.#.! ,.#.#.! ! B * O O O O O O O O O O O O O O O O O O O O O O O O O O O O O O o O & G #.,.,.A.A.A.A.A.A.A.A.A.A.A.",
"A.A.A.A.A.A.A.#.! ! #.! ! ! i O O O O O O O O O O O O O O O O O O O O O O O O O O O O O O O O O O i #.#.,.,.A.A.A.A.A.A.A.A.A.A.",
"A.A.A.A.A.A.A.A.A.S ! ! ! c X O o O O O O O O O O O O O O O O O O O O O O O O O O O O O O O O O O   M #.#.#.A.A.A.A.A.A.A.A.A.A.",
"A.A.A.A.A.A.A.A.A.! ! ! ! g O O O O O O O O O O O O O O O O O O O O O O O O O O O O O O O O O O O O g #.#.#.A.A.A.A.A.A.A.A.A.A.",
"A.A.A.A.A.A.A.A.A.#.#.#.! < O O O O O O O O O O O O O O O O O O O O O O O O O O O O O O O O O O O O : #.#.#.,.A.A.A.A.A.A.A.A.A.",
"A.A.A.A.A.A.A.A.A.#.#.#.l + O O O O O O O O O O O O O O O O O O O O O O O O O O O O O O O O O O O O o z #.#.,.A.A.A.A.A.A.A.A.A.",
"A.A.A.A.A.A.A.A.A.,.,.#.d O O O O O O O O O O O O O O O O O O O O O O O O O O O O O O O O O O O O O O s ! S ,.A.A.A.A.A.A.A.A.A.",
"A.A.A.A.A.A.A.A.A.,.,.#.q O O O O O O O O O O O O O O O O O O O O O O O O O O O O O O O O O O O O O O q #.! ,.A.A.A.A.A.A.A.A.A.",
"A.A.A.A.A.A.A.A.A.,.,.#.9 O O O O O O O O O O O O O O O O O O O O O O O O O O O O O O O O O O O O O O 8 ! #.A.A.A.A.A.A.A.A.A.A.",
"A.A.A.A.A.A.A.A.A.,.,.#.4 O O O O O O O O O O O O O O O O O O O O O O O O O O O O O O O O O O O O O O 5 ! #.A.A.A.A.A.A.A.A.A.A.",
"A.A.A.A.A.A.A.A.A.,.,.#.- O O O O O O O O O O O O O O O O O O O O O O O O O O O O O O O O O O O O O O 2 #.,.A.A.A.A.A.A.A.A.A.A.",
"A.A.A.A.A.,.,.,.,.,.#.#.3 O O O O O O O O O O O O O O O O O O O O O O O O O O O O O O O O O O O O O O - ,.A.A.A.A.A.A.A.A.A.A.A.",
"A.A.A.A.A.,.,.,.,.! ! #.7 O O O O O O O O O O O O O O O O O O O O O O O O O O O O O O O O O O O O O O 5 ,.A.A.A.A.A.A.A.A.A.A.A.",
"A.A.A.A.A.,.,.,.,.S ! ! 6 O O O O O O O O O O O O O O O O O O O O O O O O O O O O O O O O O O O O O O 8 ,.A.A.A.A.A.A.A.A.A.A.A.",
"A.A.A.A.A.,.,.,.,.#.#.! q O O O O O O O O O O O O O O O O O O O O O O O O O O O O O O O O O O O O O O q ,.A.A.A.A.A.A.A.A.A.A.A.",
"A.A.A.A.A.A.A.A.A.A.,.! p o O O O O O O O O O O O O O O O O O O O O O O O O O O O O O O O O O O O O O a ! #.,.A.A.A.A.A.A.A.A.A.",
"A.A.A.A.A.A.A.A.A.A.,.! k . O O O O O O O O O O O O O O O O O O O O O O O O O O O O O O O O O O O O o z ! #.,.A.A.A.A.A.A.A.A.A.",
"A.A.A.A.A.A.A.A.A.A.,.#.S ; O O O O O O O O O O O O O O O O O O O O O O O O O O O O O O O O O O O O 1 ! ! #.#.,.A.A.A.A.A.A.A.A.",
"A.A.A.A.A.A.A.A.A.A.,.#.#.g o o O O O O O O O O O O O O O O O O O O O O O O O O O O O O O O O O O O g #.#.#.#.,.,.A.A.A.A.A.A.A.",
"A.A.A.A.A.A.A.A.A.,.,.,.,.M X o O O O O O O O O O O O O O O O O O O O O O O O O O O O O O O O O O o v #.#.#.! #.,.A.A.A.A.A.A.A.",
"A.A.A.A.A.A.A.A.A.A.A.A.A.A.i o O O O O O O O O O O O O O O O O O O O O O O O O O O O O O O O O O i #.#.#.#.#.,.A.A.A.A.A.A.A.A.",
"A.A.A.A.A.A.A.A.A.A.A.A.A.A.K $ O O O O O O O O O O O O O O O O O O O O O O O O O O O O O O O O & V #.#.,.,.,.,.A.A.A.A.A.A.A.A.",
"A.A.A.A.A.A.A.A.A.A.A.A.A.A.A.h # O O O O O O O O O O O O O O O O O O O O O O O O O O O O o O # j ,.,.,.,.,.,.,.A.A.A.A.A.A.A.A.",
"A.A.A.A.A.A.A.A.A.A.A.A.A.A.A.,.w @ O O O O O O O O O O O O O O O O O O O O O O O O O O O O o 0 A.A.A.A.A.A.,.,.A.A.A.A.A.A.A.A.",
"A.A.A.A.A.A.A.A.A.A.A.A.A.A.A.A.A.t O O O O O O O O O O O O O O O O O O O O O O O O O O O O t ,.A.A.A.A.A.A.A.A.A.A.A.A.A.A.A.A.",
"A.A.A.A.A.A.A.A.A.A.A.A.A.A.A.A.A.K y o O O O O O O O O O O O O O O O O O O O O O O O O o t K A.A.A.A.A.A.A.A.A.A.A.A.A.A.A.A.A.",
"A.A.A.A.A.A.A.A.A.A.A.A.A.A.A.A.A.A.,.r # O O O O O O O O O O O O O O O O O O O O O O # 0 ,.A.A.A.A.A.A.A.A.A.A.A.A.A.A.A.A.A.A.",
"A.A.A.A.A.A.A.A.A.A.A.A.A.A.A.A.A.A.A.A.j % o O O O O O O O O O O O O O O O O O O o % h ,.A.A.A.A.A.A.A.A.A.A.A.A.A.A.A.A.A.A.A.",
"A.A.A.A.A.A.A.A.A.A.A.A.A.A.A.A.A.A.A.A.,.Z i   O O O O O O O O O O O O O O O O o u V ,.,.A.A.A.A.A.A.A.A.A.A.A.A.A.A.A.A.A.A.A.",
"A.A.A.A.A.A.A.A.A.A.A.A.A.A.A.A.A.A.A.A.A.A.A.M g : o O O O O O O O O O O o 1 g M #.,.,.,.A.A.A.A.A.A.A.A.A.A.A.A.A.A.A.A.A.A.A.",
"A.A.A.A.A.A.A.A.A.A.A.A.A.A.A.A.A.A.A.A.A.A.A.,.,.,.v s q 8 4 2 - 4 8 q s x #.,.,.,.,.,.,.A.A.A.A.A.A.A.A.A.A.A.A.A.A.A.A.A.A.A.",
"A.A.A.A.A.A.A.A.A.A.A.A.A.A.A.A.A.A.A.A.A.A.A.A.A.A.A.,.,.,.,.,.#.#.,.,.,.,.,.,.,.A.A.A.A.A.A.A.A.A.A.A.A.A.A.A.A.A.A.A.A.A.A.A.",
"A.A.A.A.A.A.A.A.A.A.A.A.A.A.A.A.A.A.A.A.A.A.A.A.A.A.A.A.A.A.A.A.,.,.A.A.A.A.A.A.A.A.A.A.A.A.A.A.A.A.A.A.A.A.A.A.A.A.A.A.A.A.A.A.",
"A.A.A.A.A.A.A.A.A.A.A.A.A.A.A.A.A.A.A.A.A.A.A.A.A.A.A.A.A.A.A.A.A.A.A.A.A.A.A.A.A.A.A.A.A.A.A.A.A.A.A.A.A.A.A.A.A.A.A.A.A.A.A.A.",
"A.A.A.A.A.A.A.A.A.A.A.A.A.A.A.A.A.A.A.A.A.A.A.A.A.A.A.A.A.A.A.A.A.A.A.A.A.A.A.A.A.A.A.A.A.A.A.A.A.A.A.A.A.A.A.A.A.A.A.A.A.A.A.A.",
"A.A.A.A.A.A.A.A.A.A.A.A.A.A.A.A.A.A.A.A.A.A.A.A.A.A.A.A.A.A.A.A.A.A.A.A.A.A.A.A.A.A.A.A.A.A.A.A.A.A.A.A.A.A.A.A.A.A.A.A.A.A.A.A.",
"A.A.A.A.A.A.A.A.A.A.A.A.A.A.A.A.A.A.A.A.A.A.A.A.A.A.A.A.A.A.A.A.A.A.A.A.A.A.A.A.A.A.A.A.A.A.A.A.A.A.A.A.A.A.A.A.A.A.A.A.A.A.A.A.",
"A.A.A.A.A.A.A.A.A.A.A.A.A.A.A.A.A.A.A.A.A.A.A.A.A.A.A.A.A.A.A.A.A.A.A.A.A.A.A.A.A.A.A.A.A.A.A.A.A.A.A.A.A.A.A.A.A.A.A.A.A.A.A.A.",
"A.A.A.A.A.A.A.A.A.A.A.A.A.A.A.A.A.A.A.A.A.A.A.A.A.A.A.A.A.A.A.A.A.A.A.A.A.A.A.A.A.A.A.A.A.A.A.A.A.A.A.A.A.A.A.A.A.A.A.A.A.A.A.A.",
"A.A.A.A.A.A.A.A.A.A.A.A.A.A.A.A.A.A.A.A.A.A.A.A.A.A.A.A.A.A.A.A.A.A.A.A.A.A.A.A.A.A.A.A.A.A.A.A.A.A.A.A.A.A.A.A.A.A.A.A.A.A.A.A.",
"A.A.A.A.A.A.A.A.A.A.A.A.A.A.A.A.A.A.A.A.A.A.A.A.A.A.A.A.A.A.A.A.A.A.A.A.A.A.A.A.A.A.A.A.A.A.A.A.A.A.A.A.A.A.A.A.A.A.A.A.A.A.A.A.",
"A.A.A.A.A.A.A.A.A.A.A.A.A.A.A.A.A.A.A.A.A.A.A.A.A.A.A.A.A.A.A.A.A.A.A.A.A.A.A.A.A.A.A.A.A.A.A.A.A.A.A.A.A.A.A.A.A.A.A.A.A.A.A.A.",
"A.A.A.A.A.A.A.A.A.A.A.A.A.A.A.A.A.A.A.A.A.A.A.A.A.A.A.A.A.A.A.A.A.A.A.A.A.A.A.A.A.A.A.A.A.A.A.A.A.A.A.A.A.A.A.A.A.A.A.A.A.A.A.A."
};
